<svg width="20" height="20" viewBox="0 0 20 20" fill="none" xmlns="http://www.w3.org/2000/svg">
<path d="M13.2575 10.1025L20 14.365V5.66L13.2575 10.1025ZM0 5.66V14.365L6.7425 10.1025L0 5.66ZM18.75 3.125H1.25C0.62625 3.125 0.13125 3.59 0.0375 4.18875L10 10.7525L19.9625 4.18875C19.8687 3.59 19.3738 3.125 18.75 3.125ZM12.1125 10.8575L10.3438 12.0225C10.2417 12.0896 10.1221 12.1252 10 12.125C9.88 12.125 9.76125 12.0913 9.65625 12.0225L7.8875 10.8563L0.04 15.82C0.13625 16.4137 0.62875 16.875 1.25 16.875H18.75C19.3713 16.875 19.8638 16.4137 19.96 15.82L12.1125 10.8575Z" fill="white"/>
</svg>
