<svg width="20" height="17" viewBox="0 0 20 17" fill="none" xmlns="http://www.w3.org/2000/svg">
<path d="M0.625 3.71984H10.8013C11.082 4.85398 12.1079 5.69746 13.3276 5.69746C14.5472 5.69746 15.5732 4.85398 15.8539 3.71984H19.375C19.7202 3.71984 20 3.44 20 3.09484C20 2.74969 19.7202 2.46984 19.375 2.46984H15.8538C15.5732 1.3357 14.5472 0.492188 13.3275 0.492188C12.1079 0.492188 11.0819 1.3357 10.8012 2.46984H0.625C0.279844 2.46984 0 2.74969 0 3.09484C0 3.44 0.279844 3.71984 0.625 3.71984ZM13.3276 1.74219C14.0734 1.74219 14.6802 2.34898 14.6802 3.0948C14.6802 3.84066 14.0734 4.44746 13.3276 4.44746C12.5817 4.44746 11.9749 3.84066 11.9749 3.0948C11.9749 2.34898 12.5817 1.74219 13.3276 1.74219ZM0.625 9.12562H4.14617C4.42688 10.2598 5.45277 11.1032 6.67246 11.1032C7.89215 11.1032 8.91805 10.2598 9.19875 9.12562H19.375C19.7202 9.12562 20 8.84578 20 8.50062C20 8.15547 19.7202 7.87562 19.375 7.87562H9.19871C8.91801 6.74148 7.89211 5.89797 6.67242 5.89797C5.45273 5.89797 4.42684 6.74148 4.14613 7.87562H0.625C0.279844 7.87562 0 8.15547 0 8.50062C0 8.84578 0.279805 9.12562 0.625 9.12562ZM6.67242 7.14797C7.41828 7.14797 8.02508 7.75477 8.02508 8.50062C8.02508 9.24644 7.41828 9.85324 6.67242 9.85324C5.92656 9.85324 5.31977 9.24644 5.31977 8.50062C5.31977 7.75477 5.92656 7.14797 6.67242 7.14797ZM19.375 13.2814H15.8538C15.5731 12.1473 14.5472 11.3038 13.3275 11.3038C12.1079 11.3038 11.082 12.1473 10.8012 13.2814H0.625C0.279844 13.2814 0 13.5612 0 13.9064C0 14.2516 0.279844 14.5314 0.625 14.5314H10.8013C11.082 15.6655 12.1079 16.5091 13.3276 16.5091C14.5473 16.5091 15.5732 15.6655 15.8539 14.5314H19.375C19.7202 14.5314 20 14.2516 20 13.9064C20 13.5612 19.7202 13.2814 19.375 13.2814ZM13.3276 15.2591C12.5817 15.2591 11.9749 14.6523 11.9749 13.9064C11.9749 13.1605 12.5817 12.5538 13.3276 12.5538C14.0734 12.5538 14.6802 13.1605 14.6802 13.9064C14.6802 14.6523 14.0734 15.2591 13.3276 15.2591Z" fill="#1B1B1B"/>
</svg>
