<svg width="25" height="26" viewBox="0 0 25 26" fill="none" xmlns="http://www.w3.org/2000/svg">
<path d="M8.53051 4.96824C9.86884 4.99574 11.1725 5.60574 12.1069 7.22491C12.4541 7.82547 13.3208 7.82547 13.6694 7.22491C14.6041 5.60602 15.9077 4.99602 17.2458 4.96824C18.5841 4.93908 19.9541 5.57019 20.7991 6.58574C22.4297 8.54769 22.638 11.9763 20.2508 14.3782L12.888 20.7221L5.52412 14.3782C3.13829 11.9766 3.34523 8.54769 4.97718 6.58574C5.82218 5.57019 7.19218 4.93908 8.53051 4.96824ZM8.5694 3.16158C6.6569 3.12074 4.80079 3.97463 3.58829 5.4313C1.34579 8.12824 1.21106 12.613 4.2494 15.6613C4.26551 15.6777 4.28273 15.6932 4.30023 15.7091L12.2994 22.5982C12.4633 22.739 12.6721 22.8164 12.8881 22.8164C13.1042 22.8164 13.313 22.739 13.4769 22.5982L21.4775 15.7091C21.495 15.6932 21.5108 15.6777 21.5269 15.6613C24.5652 12.6127 24.4288 8.12824 22.1866 5.4313C20.9758 3.97435 19.118 3.12046 17.2066 3.16158C15.6211 3.19435 14.0919 4.07546 12.888 5.51796C11.6844 4.07546 10.1552 3.19435 8.5694 3.16158Z" fill="white"/>
</svg>
