<svg width="33" height="27" viewBox="0 0 33 27" fill="none" xmlns="http://www.w3.org/2000/svg">
<g clipPath="url(#clip0_356_672)">
<path d="M32.35 25.9902V26.0562H32.4115C32.4231 26.0564 32.4345 26.0535 32.4445 26.0478C32.4485 26.0449 32.4518 26.0411 32.4539 26.0367C32.4561 26.0323 32.4571 26.0274 32.4569 26.0225C32.4571 26.0177 32.4561 26.0129 32.4539 26.0086C32.4517 26.0043 32.4485 26.0006 32.4445 25.9979C32.4346 25.992 32.4231 25.989 32.4115 25.9895H32.35V25.9902ZM32.4122 25.9435C32.4386 25.9419 32.4647 25.9494 32.4861 25.9649C32.4947 25.972 32.5015 25.9809 32.506 25.9911C32.5105 26.0012 32.5126 26.0123 32.512 26.0234C32.5124 26.0329 32.5107 26.0424 32.5072 26.0513C32.5036 26.0601 32.4981 26.0681 32.4912 26.0747C32.4747 26.089 32.454 26.0977 32.4321 26.0992L32.5146 26.1933H32.4511L32.3752 26.0999H32.3506V26.1933H32.2975V25.9437H32.413L32.4122 25.9435ZM32.3957 26.2794C32.4235 26.2797 32.4512 26.2741 32.4767 26.2629C32.5013 26.2523 32.5237 26.2372 32.5427 26.2182C32.5617 26.1993 32.5769 26.1769 32.5874 26.1522C32.6091 26.0999 32.6091 26.0412 32.5874 25.9889C32.5767 25.9643 32.5616 25.9419 32.5427 25.9229C32.5237 25.9039 32.5013 25.8888 32.4767 25.8781C32.451 25.8676 32.4235 25.8623 32.3957 25.8626C32.3674 25.8624 32.3394 25.8676 32.3132 25.8781C32.288 25.8886 32.2651 25.9037 32.2457 25.9229C32.2165 25.9528 32.1968 25.9907 32.1889 26.0317C32.1811 26.0728 32.1855 26.1153 32.2016 26.1539C32.2117 26.1786 32.2267 26.2011 32.2457 26.2199C32.2651 26.239 32.288 26.2542 32.3132 26.2646C32.3393 26.2757 32.3673 26.2813 32.3957 26.2811M32.3957 25.8026C32.4682 25.8025 32.5378 25.831 32.5896 25.8818C32.6145 25.9062 32.6344 25.9353 32.648 25.9674C32.6621 26.0004 32.6693 26.0359 32.6693 26.0718C32.6693 26.1077 32.6621 26.1432 32.648 26.1761C32.634 26.2081 32.6142 26.2371 32.5896 26.2618C32.5642 26.286 32.5348 26.3056 32.5026 26.3195C32.4688 26.3339 32.4324 26.3412 32.3957 26.341C32.3585 26.3412 32.3217 26.3339 32.2874 26.3195C32.2549 26.3059 32.2252 26.2863 32.1998 26.2618C32.1752 26.2362 32.1556 26.2062 32.1422 26.1733C32.1281 26.1403 32.1209 26.1048 32.1209 26.069C32.1209 26.0331 32.1281 25.9976 32.1422 25.9646C32.1559 25.9325 32.1757 25.9034 32.2007 25.879C32.2256 25.854 32.2555 25.8343 32.2883 25.8212C32.3225 25.8068 32.3594 25.7995 32.3965 25.7998M7.13088 24.8385C7.13088 24.3625 7.44273 23.9714 7.95242 23.9714C8.4395 23.9714 8.76818 24.3456 8.76818 24.8385C8.76818 25.3313 8.4395 25.7056 7.95242 25.7056C7.44273 25.7056 7.13088 25.3145 7.13088 24.8385ZM9.3234 24.8385V23.4838H8.73452V23.8138C8.54774 23.57 8.26443 23.417 7.87916 23.417C7.12016 23.417 6.52451 24.0123 6.52451 24.8391C6.52451 25.666 7.11983 26.2613 7.87916 26.2613C8.26427 26.2613 8.54774 26.1082 8.73452 25.8645V26.1933H9.32274V24.8385H9.3234ZM29.2211 24.8385C29.2211 24.3625 29.5329 23.9714 30.0428 23.9714C30.5304 23.9714 30.8585 24.3456 30.8585 24.8385C30.8585 25.3313 30.5304 25.7056 30.0428 25.7056C29.5331 25.7056 29.2211 25.3145 29.2211 24.8385ZM31.4143 24.8385V22.3965H30.8249V23.8138C30.6381 23.57 30.3548 23.417 29.9695 23.417C29.2105 23.417 28.6149 24.0123 28.6149 24.8391C28.6149 25.666 29.2102 26.2613 29.9695 26.2613C30.3548 26.2613 30.6381 26.1082 30.8249 25.8645V26.1933H31.4143V24.8385ZM16.6322 23.9435C17.0117 23.9435 17.2555 24.1815 17.3177 24.6004H15.9125C15.9754 24.2093 16.2128 23.9435 16.6324 23.9435M16.6441 23.4155C15.8505 23.4155 15.2952 23.993 15.2952 24.8377C15.2952 25.6988 15.8727 26.2598 16.6836 26.2598C17.0914 26.2598 17.465 26.158 17.7937 25.8803L17.5051 25.4439C17.2781 25.6254 16.989 25.7272 16.7172 25.7272C16.3377 25.7272 15.9922 25.5514 15.9072 25.0639H17.9181C17.9239 24.9906 17.9298 24.9167 17.9298 24.8375C17.9239 23.9932 17.4018 23.4154 16.6438 23.4154M23.7536 24.8375C23.7536 24.3615 24.0655 23.9704 24.5752 23.9704C25.0623 23.9704 25.3909 24.3446 25.3909 24.8375C25.3909 25.3304 25.0623 25.7046 24.5752 25.7046C24.0655 25.7046 23.7535 25.3135 23.7535 24.8375M25.946 24.8375V23.4838H25.3574V23.8138C25.17 23.57 24.8874 23.417 24.5021 23.417C23.7431 23.417 23.1474 24.0123 23.1474 24.8391C23.1474 25.666 23.7428 26.2613 24.5021 26.2613C24.8874 26.2613 25.17 26.1082 25.3574 25.8645V26.1933H25.9462V24.8385L25.946 24.8375ZM20.4281 24.8375C20.4281 25.659 21 26.2596 21.8728 26.2596C22.2807 26.2596 22.5524 26.1689 22.8463 25.9367L22.5635 25.4607C22.3424 25.6196 22.1102 25.7046 21.854 25.7046C21.3839 25.6988 21.0382 25.3589 21.0382 24.8375C21.0382 24.3161 21.3839 23.9764 21.854 23.9704C22.1096 23.9704 22.3417 24.0554 22.5635 24.2143L22.8463 23.7383C22.552 23.5061 22.2802 23.4154 21.8728 23.4154C21 23.4154 20.4281 24.0158 20.4281 24.8375ZM28.0197 23.4154C27.68 23.4154 27.4587 23.5743 27.3058 23.8122V23.4838H26.7222V26.1918H27.3117V24.6738C27.3117 24.2257 27.5043 23.9767 27.8892 23.9767C28.0153 23.9749 28.1404 23.998 28.2575 24.0448L28.439 23.4898C28.3086 23.4385 28.1387 23.4159 28.0194 23.4159M12.2348 23.6992C11.9515 23.5124 11.5611 23.4159 11.1305 23.4159C10.4444 23.4159 10.0027 23.7447 10.0027 24.2828C10.0027 24.7243 10.3316 24.9967 10.9371 25.0817L11.2153 25.1213C11.5382 25.1667 11.6907 25.2516 11.6907 25.4046C11.6907 25.614 11.4762 25.7334 11.0734 25.7334C10.6655 25.7334 10.3712 25.6031 10.1727 25.4501L9.89595 25.9093C10.2189 26.1473 10.6267 26.2608 11.0684 26.2608C11.8505 26.2608 12.3038 25.8925 12.3038 25.3769C12.3038 24.9009 11.9471 24.6519 11.3577 24.5669L11.0802 24.5266C10.8252 24.4936 10.621 24.4423 10.621 24.2608C10.621 24.0628 10.8135 23.9437 11.1366 23.9437C11.4823 23.9437 11.8169 24.074 11.9809 24.1758L12.2358 23.6998L12.2348 23.6992ZM19.8332 23.4164C19.4935 23.4164 19.2722 23.5752 19.1199 23.8132V23.4838H18.5363V26.1918H19.1252V24.6738C19.1252 24.2257 19.3178 23.9767 19.7027 23.9767C19.8288 23.9749 19.954 23.998 20.071 24.0448L20.2525 23.4898C20.1222 23.4385 19.9522 23.4159 19.8329 23.4159M14.808 23.4838H13.8451V22.6623H13.2497V23.4838H12.7005V24.0221H13.2497V25.2574C13.2497 25.8857 13.4936 26.26 14.1902 26.26C14.4458 26.26 14.7402 26.1808 14.927 26.0506L14.7569 25.5463C14.5811 25.6481 14.3886 25.6995 14.2355 25.6995C13.9411 25.6995 13.8451 25.518 13.8451 25.2462V24.0226H14.808V23.4838ZM6.00377 26.1925V24.493C6.00377 23.8529 5.59589 23.4223 4.93836 23.4165C4.59269 23.4107 4.23612 23.5183 3.98648 23.8983C3.7997 23.598 3.50534 23.4165 3.09152 23.4165C2.80227 23.4165 2.51963 23.5015 2.29836 23.8186V23.4838H1.70898V26.1918H2.30298V24.6903C2.30298 24.2202 2.56368 23.9704 2.96628 23.9704C3.35733 23.9704 3.55517 24.2253 3.55517 24.6844V26.1915H4.15049V24.69C4.15049 24.2199 4.42224 23.9701 4.81313 23.9701C5.21523 23.9701 5.40713 24.225 5.40713 24.684V26.1912L6.00377 26.1925Z" fill="white"/>
<path d="M32.6857 17.1851V16.7891H32.5825L32.4632 17.0608L32.3446 16.7891H32.2411V17.1851H32.3144V16.8867L32.4259 17.1441H32.5018L32.6134 16.8861V17.1851H32.686H32.6857ZM32.0314 17.1851V16.8569H32.1634V16.7901H31.8262V16.8569H31.9582V17.1851H32.0308H32.0314Z" fill="#F79410"/>
<path d="M20.9642 18.8817H12.04V2.84375H20.9644L20.9642 18.8817Z" fill="#FF5A00"/>
<path d="M12.606 10.8639C12.606 7.61057 14.1293 4.71251 16.5013 2.84488C14.7058 1.42909 12.485 0.660695 10.1985 0.664074C4.56588 0.664074 0 5.23061 0 10.8639C0 16.4971 4.56588 21.0637 10.1985 21.0637C12.4851 21.0671 14.7059 20.2987 16.5015 18.8829C14.1296 17.0156 12.606 14.1173 12.606 10.8639Z" fill="#EC0014"/>
<path d="M33.0043 10.8639C33.0043 16.4971 28.4384 21.0637 22.8058 21.0637C20.5189 21.067 18.2979 20.2987 16.502 18.8829C18.8747 17.0152 20.3979 14.1173 20.3979 10.8639C20.3979 7.61041 18.8747 4.71251 16.502 2.84488C18.2978 1.42913 20.5188 0.660754 22.8056 0.664073C28.4382 0.664073 33.0041 5.23061 33.0041 10.8639" fill="#F79F14"/>
</g>
<defs>
<clipPath id="clip0_356_672">
<rect width="33" height="27" fill="white"/>
</clipPath>
</defs>
</svg>
