<svg width="65" height="20" viewBox="0 0 65 20" fill="none" xmlns="http://www.w3.org/2000/svg">
<path d="M5.03711 2.16667H10.3996C10.8871 2.16667 12.3496 2 12.9996 4.33333C13.4871 5.83333 14.1371 8.16667 15.1121 11.6667H15.4371C16.4121 8 17.2246 5.5 17.5496 4.33333C18.1996 2 19.8246 2.16667 20.4746 2.16667H25.5121V18.1667H20.3121V8.66667H19.9871L17.2246 18.1667H13.3246L10.5621 8.66667H10.0746V18.1667H5.03711M27.6246 2.16667H32.8246V11.6667H33.3121L36.7246 3.83333C37.3746 2.33333 38.8371 2.16667 38.8371 2.16667H43.7121V18.1667H38.5121V8.66667H38.1871L34.7746 16.5C34.1246 18 32.4996 18.1667 32.4996 18.1667H27.6246M50.6996 13.3333V18.1667H45.8246V9.83333H61.7496C61.0996 11.8333 58.8246 13.3333 56.2246 13.3333" fill="#4DB45E"/>
<path d="M62.075 8.83463C62.725 5.83464 60.775 2.16797 56.55 2.16797H45.5C45.825 5.66797 48.75 8.83463 51.8375 8.83463" fill="#01B3E5"/>
</svg>
