<svg width="25" height="25" viewBox="0 0 25 25" fill="none" xmlns="http://www.w3.org/2000/svg">
<rect width="25" height="25" rx="12.5" fill="white"/>
<g clipPath="url(#clip0_356_742)">
<path d="M12.5013 6.49219H12.4983C9.18583 6.49219 6.49219 9.18658 6.49219 12.4998C6.49219 13.8139 6.91572 15.0319 7.63588 16.0209L6.88719 18.2528L9.19634 17.5146C10.1463 18.1439 11.2795 18.5073 12.5013 18.5073C15.8137 18.5073 18.5073 15.8122 18.5073 12.4998C18.5073 9.18733 15.8137 6.49219 12.5013 6.49219ZM15.9969 14.9756C15.852 15.3849 15.2768 15.7243 14.8179 15.8234C14.504 15.8903 14.094 15.9436 12.7138 15.3714C10.9483 14.64 9.81137 12.8459 9.72276 12.7295C9.6379 12.6131 9.00936 11.7796 9.00936 10.9175C9.00936 10.0554 9.44716 9.63565 9.62363 9.45542C9.76857 9.30748 10.0081 9.2399 10.2379 9.2399C10.3122 9.2399 10.3791 9.24365 10.4392 9.24666C10.6156 9.25417 10.7042 9.26468 10.8206 9.54328C10.9656 9.89247 11.3185 10.7546 11.3606 10.8432C11.4034 10.9318 11.4462 11.0519 11.3861 11.1683C11.3298 11.2885 11.2802 11.3418 11.1916 11.4439C11.103 11.5461 11.0189 11.6242 10.9303 11.7338C10.8492 11.8292 10.7576 11.9313 10.8597 12.1078C10.9618 12.2805 11.3148 12.8565 11.8344 13.319C12.505 13.916 13.0487 14.1068 13.2432 14.1879C13.3881 14.248 13.5608 14.2337 13.6667 14.121C13.8011 13.9761 13.9671 13.7358 14.1361 13.4993C14.2562 13.3296 14.4079 13.3085 14.5671 13.3686C14.7293 13.4249 15.5876 13.8492 15.7641 13.9371C15.9406 14.0257 16.057 14.0677 16.0998 14.1421C16.1418 14.2164 16.1418 14.5656 15.9969 14.9756Z" fill="#1E1E1E"/>
</g>
<defs>
<clipPath id="clip0_356_742">
<rect width="12.0151" height="12.0151" fill="white" transform="translate(6.49219 6.49219)"/>
</clipPath>
</defs>
</svg>
