<svg width="69" height="70" viewBox="0 0 69 70" fill="none" xmlns="http://www.w3.org/2000/svg">
<path d="M66.4697 40.2847C66.4624 43.986 65.0082 47.5335 62.4254 50.1507C59.8427 52.7679 56.3418 54.2415 52.6892 54.2489H41.0288V49.587C41.7104 49.8281 42.427 49.9515 43.1489 49.9522C43.9843 49.9547 44.8119 49.7888 45.5835 49.4642C46.3551 49.1397 47.0553 48.6629 47.6435 48.0617C48.8217 46.8464 49.4819 45.2109 49.4819 43.5072C49.4819 41.8036 48.8217 40.168 47.6435 38.9527L39.1632 30.3594C37.9564 29.1801 36.3452 28.5211 34.6686 28.5211C32.9921 28.5211 31.3809 29.1801 30.1741 30.3594L21.6938 38.9527C20.6741 39.9863 20.0314 41.3403 19.8711 42.7927C19.7107 44.2451 20.0422 45.7096 20.8113 46.946C21.5803 48.1823 22.7411 49.1171 24.1034 49.597C25.4656 50.0769 26.9484 50.0734 28.3084 49.587V54.2489H16.648C13.3878 54.2417 10.2356 53.0635 7.75179 50.9235C5.26793 48.7836 3.61325 45.8205 3.08181 42.561C2.55036 39.3015 3.17658 35.9566 4.84916 33.1208C6.52175 30.2849 9.13237 28.1419 12.2171 27.0724C11.5301 25.1329 11.2486 23.0698 11.3902 21.0141C11.6694 17.3933 13.2153 13.9925 15.7496 11.4244C18.2839 8.85636 21.6399 7.28978 25.2131 7.00695C28.1167 6.812 31.0126 7.48851 33.539 8.95192C36.0653 10.4153 38.11 12.6008 39.4176 15.2351C40.7847 14.312 42.3451 13.7241 43.9753 13.518C45.6055 13.3119 47.2606 13.4933 48.8096 14.0478C50.3586 14.6023 51.7589 15.5146 52.8997 16.7126C54.0404 17.9105 54.8902 19.3612 55.3817 20.9497C55.9616 22.786 56.0277 24.7492 55.5725 26.6213C58.6547 27.2972 61.416 29.021 63.3981 31.5063C65.3803 33.9917 66.4641 37.0892 66.4697 40.2847Z" fill="#F6F6F6"/>
<path d="M44.6487 41.9887L36.1685 33.3953C35.7659 33.0005 35.2277 32.7798 34.6674 32.7798C34.1072 32.7798 33.569 33.0005 33.1664 33.3953L24.6862 41.9887C24.2887 42.3916 24.0654 42.9379 24.0654 43.5076C24.0654 44.0772 24.2887 44.6236 24.6862 45.0264C25.0882 45.4205 25.6257 45.6407 26.185 45.6407C26.7444 45.6407 27.2819 45.4205 27.6839 45.0264L32.5495 40.1003V60.6943C32.5495 61.264 32.7729 61.8105 33.1705 62.2134C33.568 62.6163 34.1073 62.8426 34.6696 62.8426C35.2318 62.8426 35.7711 62.6163 36.1687 62.2134C36.5663 61.8105 36.7896 61.264 36.7896 60.6943V40.1003L41.651 45.0264C42.052 45.4225 42.5899 45.6441 43.1499 45.6441C43.7098 45.6441 44.2477 45.4225 44.6487 45.0264C45.0462 44.6236 45.2695 44.0772 45.2695 43.5076C45.2695 42.9379 45.0462 42.3916 44.6487 41.9887Z" fill="#F6F6F6"/>
</svg>
