<svg width="27" height="28" viewBox="0 0 27 28" fill="none" xmlns="http://www.w3.org/2000/svg">
<path fillRule="evenodd" clipRule="evenodd" d="M14.3125 2.88281C11.1589 2.88281 8.59936 5.4423 8.59936 8.59596C8.59936 11.7496 11.1589 14.3091 14.3125 14.3091C17.4662 14.3091 20.0257 11.7496 20.0257 8.59596C20.0257 5.4423 17.4662 2.88281 14.3125 2.88281ZM14.3125 4.3732C16.6435 4.3732 18.5353 6.265 18.5353 8.59596C18.5353 10.9269 16.6435 12.8187 14.3125 12.8187C11.9815 12.8187 10.0897 10.9269 10.0897 8.59596C10.0897 6.265 11.9815 4.3732 14.3125 4.3732ZM24 21.5126C24 19.7339 23.2934 18.028 22.0357 16.7703C20.7779 15.5125 19.072 14.8059 17.2933 14.8059H11.3317C9.553 14.8059 7.84712 15.5125 6.58936 16.7703C5.3316 18.028 4.625 19.7339 4.625 21.5126C4.625 22.237 4.91314 22.9325 5.42484 23.4452C5.93775 23.9571 6.63272 24.2447 7.35737 24.245H21.2676C21.992 24.245 22.6875 23.9569 23.2002 23.4452C23.7121 22.9323 23.9997 22.2373 24 21.5126ZM22.5096 21.5126C22.5091 21.8419 22.3781 22.1575 22.1453 22.3903C21.9125 22.6231 21.5969 22.7541 21.2676 22.7546H7.35737C7.02814 22.7541 6.71254 22.6231 6.47974 22.3903C6.24693 22.1575 6.11591 21.8419 6.11539 21.5126C6.11499 20.8275 6.24965 20.149 6.51166 19.516C6.77367 18.8829 7.15789 18.3077 7.64235 17.8233C8.12681 17.3388 8.70201 16.9546 9.33506 16.6926C9.96812 16.4306 10.6466 16.2959 11.3317 16.2963H17.2933C17.9784 16.2959 18.6569 16.4306 19.29 16.6926C19.923 16.9546 20.4982 17.3388 20.9827 17.8233C21.4671 18.3077 21.8514 18.8829 22.1134 19.516C22.3754 20.149 22.51 20.8275 22.5096 21.5126Z" fill="white"/>
</svg>
