<svg width="55" height="27" viewBox="0 0 55 27" fill="none" xmlns="http://www.w3.org/2000/svg">
<g clipPath="url(#clip0_356_679)">
<path d="M24.4224 20.7585H20.6455L23.006 6.25141H26.7834L24.4224 20.7585ZM17.4681 6.25141L13.8673 16.2295L13.4412 14.0808L13.4416 14.0816L12.1707 7.55761C12.1707 7.55761 12.0171 6.25141 10.3791 6.25141H4.4263L4.35645 6.49705C4.35645 6.49705 6.17682 6.87579 8.30725 8.15521L11.5887 20.7589H15.5239L21.533 6.25141H17.4681ZM47.1757 20.7585H50.6438L47.6201 6.25102H44.5839C43.1819 6.25102 42.8404 7.33215 42.8404 7.33215L37.2074 20.7585H41.1446L41.9319 18.6036H46.7334L47.1757 20.7585ZM43.0197 15.6269L45.0042 10.1979L46.1206 15.6269H43.0197ZM37.5027 9.74003L38.0417 6.62472C38.0417 6.62472 36.3785 5.99219 34.6446 5.99219C32.7703 5.99219 28.3193 6.81137 28.3193 10.7948C28.3193 14.5426 33.5433 14.5892 33.5433 16.5578C33.5433 18.5264 28.8575 18.1737 27.3111 16.9323L26.7496 20.1896C26.7496 20.1896 28.4361 21.0088 31.0128 21.0088C33.5903 21.0088 37.4786 19.6743 37.4786 16.0421C37.4786 12.2702 32.2076 11.919 32.2076 10.279C32.208 8.63873 35.8864 8.84945 37.5027 9.74003Z" fill="#0C31CC"/>
<path d="M13.4416 14.0822L12.1707 7.55815C12.1707 7.55815 12.0171 6.25195 10.3791 6.25195H4.4263L4.35645 6.49759C4.35645 6.49759 7.21758 7.09054 9.96192 9.31216C12.586 11.4356 13.4416 14.0822 13.4416 14.0822Z" fill="#F79410"/>
</g>
<defs>
<clipPath id="clip0_356_679">
<rect width="55" height="27" fill="white"/>
</clipPath>
</defs>
</svg>
