<svg width="14" height="14" viewBox="0 0 14 14" fill="none" xmlns="http://www.w3.org/2000/svg">
<rect width="14" height="14" rx="7" fill="#F79410"/>
<path d="M7.38094 5.45031C7.38094 6.01031 7.36094 6.52031 7.32094 6.98031C7.28094 7.43365 7.23094 7.88698 7.17094 8.34031H6.59094C6.53094 7.88698 6.48094 7.43365 6.44094 6.98031C6.40094 6.52031 6.38094 6.01031 6.38094 5.45031V3.57031H7.38094V5.45031ZM7.55094 9.96031C7.55094 10.1403 7.49094 10.297 7.37094 10.4303C7.25094 10.5636 7.0876 10.6303 6.88094 10.6303C6.67427 10.6303 6.51094 10.5636 6.39094 10.4303C6.27094 10.297 6.21094 10.1403 6.21094 9.96031C6.21094 9.78031 6.27094 9.62365 6.39094 9.49031C6.51094 9.35698 6.67427 9.29031 6.88094 9.29031C7.0876 9.29031 7.25094 9.35698 7.37094 9.49031C7.49094 9.62365 7.55094 9.78031 7.55094 9.96031Z" fill="white"/>
</svg>
